<svg xmlns="http://www.w3.org/2000/svg" version="1.1" xmlns:xlink="http://www.w3.org/1999/xlink" xmlns:svgjs="http://svgjs.dev/svgjs" width="1000" height="1125" viewBox="0 0 1000 1125"><g transform="matrix(1,0,0,1,1.7053025658242404e-13,0)"><svg viewBox="0 0 320 360" data-background-color="#ffffff" preserveAspectRatio="xMidYMid meet" height="1125" width="1000" xmlns="http://www.w3.org/2000/svg" xmlns:xlink="http://www.w3.org/1999/xlink"><g id="tight-bounds" transform="matrix(1,0,0,1,0,0)"><svg viewBox="0 0 320 360" height="360" width="320"><g><svg></svg></g><g><svg viewBox="0 0 320 360" height="360" width="320"><g><path xmlns="http://www.w3.org/2000/svg" d="M20.961 227.22l3.726 4.658-1.863-6.056c-0.466-2.795-3.726 0.466-1.863 1.398M25.153 224.425c1.397 2.329 2.795 4.658 2.795 6.987 0 3.261 2.795 4.658 5.123 5.589-3.261-3.726-5.124-13.974-7.918-12.576M204.017 26.929c7.918 0 15.371-0.932 23.756 0.931 20.495 5.124 37.729 15.371 49.374 29.811l32.606 52.169c1.397 13.042 4.192 27.482 3.726 43.319 3.261 0 2.795-4.658 6.521-5.59-3.726 9.316-5.59 20.961-6.521 34.469-2.329-7.453 0-18.632 0.466-24.687-3.261 5.124-5.124 1.397-5.124-0.932 0.466-3.726-1.397-3.261-2.795-4.658-5.124-4.658-8.384-9.782-12.11-17.7 2.329-6.055 2.795-14.905-4.658-19.563-2.329-1.397-5.124-3.726-6.521-7.453-1.863-5.124-5.124-11.179-4.193-19.097 0.466-2.329-6.987 5.124-11.179 1.863-18.166-12.576-36.332-27.016-58.224-39.127-11.645 0-20.029-4.192-24.221-9.316-3.726-4.658-0.932-10.713 4.658-11.179 3.261 0 6.987-0.932 9.782 0.932 0.466-1.863 2.329-4.192 4.657-4.192M157.904 16.215l0.932 0.466c4.658 0.932 6.987 7.453 12.11 5.124 0 3.261 0.466 6.521-0.466 8.85-1.397 3.726-5.59 3.726-8.85 3.726-31.208-1.863-49.374 11.179-68.471 22.358-5.124 3.261-10.713 5.59-14.906 9.782-20.029 18.632-41.921 35.866-47.045 70.335l-4.192 38.195c-0.466 4.192-5.124 8.384-4.192 13.508l3.26 22.824c-3.261-3.261-5.124 0.932-4.192 2.795 0.466 1.397 2.329 6.055 5.124 1.863 3.726 6.987 7.453 20.495 12.576 26.55 15.837 18.632 36.332 35.4 53.101 52.169 4.192-0.932 7.453-0.932 8.384-3.727 1.397 2.795-1.397 5.59-3.726 6.056 7.453 4.658 15.837 8.85 27.016 9.781 14.44 0.932 27.948 3.261 40.524 6.522 6.521-1.863 13.042-2.795 20.029-3.261 2.329 0 3.726-3.726 6.521-4.658l0.466-4.658c2.795 4.192 2.329-1.397 0.466-4.192 3.261 2.795 4.192 5.124 5.589 6.987 0-1.397 3.726-6.521 3.727-0.466l0.931-6.055c1.397-0.932 1.863 5.124 3.261 0.931 1.397-4.192 4.192-0.932 6.987-2.329-0.932 1.863-0.466 5.59 2.794 3.261l3.727-3.261c2.329 5.59 6.055 3.261 7.918 2.329 20.495-13.042 40.99-28.413 60.553-43.784l-0.466 6.055 2.329-7.453c2.329 2.329 4.192 0.466 5.124-0.931 2.795-4.658 6.521-9.316 12.577-13.508-7.453 20.029-16.303 35.866-27.482 48.908l-4.658 5.59c0 3.261-0.932 7.453-4.658 7.918-1.863 0.466-5.59-0.932-8.384 1.863-1.397 1.863 3.261 5.59-0.466 2.795-3.261-2.329-6.521 0-10.248 0.932-2.795 0.932 1.863 3.726 2.795 5.589 0.932 1.863 1.863 3.726 1.398 6.056l-5.124-5.59c-6.055 3.261-9.782 9.316-14.906 13.974-2.329 1.863-1.397 5.124-1.397 7.918-3.261 0-6.987-0.932-8.85 0.932-1.397 1.863-0.932 4.658-0.932 7.453-4.658-0.466-5.124-7.453-9.315-6.056-4.192 0.932-8.85 1.397-12.577 3.727 2.795 5.59-4.658 2.329-3.726 3.26-6.987-4.192-13.042-7.453-20.495-4.658-15.837-5.124-35.4-2.795-49.84-0.931 0-2.329 0.466-4.658-0.466-5.124-0.932 2.329-3.726 1.397-3.26 1.397-8.85-6.055-17.7-9.782-27.016-14.905-8.384 0.932-16.303-3.261-18.632-5.59-6.521-6.055-13.974-2.795-20.029-4.192-13.042-3.261-17.7-16.769-19.098-26.084-0.932-4.658-4.658-6.521-6.055-6.056-6.055-19.563-15.371-37.263-22.824-55.429-1.863-4.658-1.397-9.316-1.397-14.44 2.329 0.932 4.658 0.466 4.192-2.794-2.329-15.371-7.918-27.016-13.974-38.195 3.261-15.837 3.726-34.469 11.179-48.443 6.521-12.576 18.632-19.098 27.016-29.811 2.795-3.726 2.795-8.85 5.59-12.11 9.316-9.316 18.632-19.098 28.879-27.482 4.658-3.726 10.247 0 17.234-1.397 2.329-8.384 11.645-15.837 20.495-13.508 3.726 0.932 11.179-8.85 13.508-9.782 3.726-1.397 1.863 3.726 1.863 6.987 8.85-6.987 20.961-10.713 32.14-14.906" fill="#a437db" fill-rule="nonzero" stroke="none" stroke-width="1" stroke-linecap="butt" stroke-linejoin="miter" stroke-miterlimit="10" stroke-dasharray="" stroke-dashoffset="0" font-family="none" font-weight="none" font-size="none" text-anchor="none" style="mix-blend-mode: normal" data-fill-palette-color="tertiary"></path></g><g transform="matrix(1,0,0,1,64,164.52018578063593)"><svg viewBox="0 0 192 30.959628438728117" height="30.959628438728117" width="192"><g><svg viewBox="0 0 192 30.959628438728117" height="30.959628438728117" width="192"><g><svg viewBox="0 0 192 30.959628438728117" height="30.959628438728117" width="192"><g><svg viewBox="0 0 192 30.959628438728117" height="30.959628438728117" width="192"><g id="textblocktransform"><svg viewBox="0 0 192 30.959628438728117" height="30.959628438728117" width="192" id="textblock"><g><svg viewBox="0 0 192 30.959628438728117" height="30.959628438728117" width="192"><g transform="matrix(1,0,0,1,0,0)"><svg width="192" viewBox="4.579999923706055 -33.77000045776367 212.24000549316406 34.22999954223633" height="30.959628438728117" data-palette-color="#a437db"><path d="M8.14-21.16L8.14-21.16 8.14 0 4.58 0 4.58-33.27 10.39-33.27 20.93-5.81 21.11-5.81 31.72-33.27 37.51-33.27 37.51 0 33.65 0 33.65-21.44Q33.65-25.28 33.97-29.45L33.97-29.45 33.77-29.45 22.4 0 19.29 0 8.01-29.47 7.84-29.47Q8.14-25.99 8.14-21.16ZM55.36-24.37L51.44-14.05 62.18-14.05 58.31-24.37Q57.53-26.49 56.77-29.17L56.77-29.17Q56.32-27.1 55.36-24.37L55.36-24.37ZM58.47-33.39L71.53 0 67.54 0 63.39-10.57 50.07-10.57 45.98 0 42.06 0 55.2-33.39 58.47-33.39ZM93.62-29.83L83.08-29.83 83.08 0 79.22 0 79.22-29.83 68.68-29.83 68.68-33.27 93.62-33.27 93.62-29.83ZM102.5-33.27L102.5 0 98.63 0 98.63-33.27 102.5-33.27ZM130.37-8.85L130.37-8.85Q130.37-4.45 127.2-2 124.03 0.46 118.33 0.46 112.63 0.46 109.44-1.06L109.44-1.06 109.44-4.8Q113.94-2.93 118.7-2.93L118.7-2.93Q122.51-2.93 124.5-4.37 126.48-5.81 126.48-8.49L126.48-8.49Q126.48-10.21 125.79-11.3 125.09-12.39 123.45-13.35 121.8-14.31 118.52-15.47L118.52-15.47Q113.89-17.11 111.88-19.39 109.87-21.66 109.87-25.43 109.87-29.2 112.76-31.47L112.76-31.47Q115.69-33.75 120.53-33.75 125.37-33.75 129.54-31.93L129.54-31.93 128.33-28.54Q124.21-30.28 120.34-30.28L120.34-30.28Q117.25-30.28 115.52-28.96 113.79-27.63 113.79-25.3L113.79-25.3Q113.79-23.53 114.41-22.47 115.03-21.41 116.57-20.42L116.57-20.42Q118.16-19.46 121.22-18.4L121.22-18.4Q126.48-16.53 128.4-14.38L128.4-14.38Q130.37-12.26 130.37-8.85ZM141.06-3.46L155.73-3.46 155.73 0 137.2 0 137.2-33.27 155.73-33.27 155.73-29.83 141.06-29.83 141.06-19.11 154.84-19.11 154.84-15.7 141.06-15.7 141.06-3.46ZM183.88-29.83L173.34-29.83 173.34 0 169.47 0 169.47-29.83 158.93-29.83 158.93-33.27 183.88-33.27 183.88-29.83ZM190.2-4.02Q186.21-8.54 186.21-16.7 186.21-24.85 190.21-29.31 194.22-33.77 201.49-33.77 208.75-33.77 212.79-29.23 216.82-24.7 216.82-16.7 216.82-8.7 212.77-4.12 208.73 0.46 201.46 0.46 194.19 0.46 190.2-4.02L190.2-4.02ZM209.92-26.87Q207.11-30.33 201.59-30.33 196.06-30.33 193.18-26.85 190.3-23.36 190.3-16.65 190.3-9.93 193.18-6.43 196.06-2.93 201.58-2.93 207.09-2.93 209.9-6.41 212.72-9.88 212.72-16.65 212.72-23.41 209.92-26.87Z" opacity="1" transform="matrix(1,0,0,1,0,0)" fill="#a437db" class="wordmark-text-0" data-fill-palette-color="primary" id="text-0"></path></svg></g></svg></g></svg></g></svg></g><g></g></svg></g></svg></g></svg></g></svg></g><defs></defs></svg><rect width="320" height="360" fill="none" stroke="none" visibility="hidden"></rect></g></svg></g></svg>